<?xml version="1.0" encoding="UTF-8" ?>
<!DOCTYPE svg PUBLIC "-//W3C//DTD SVG 1.1//EN" "http://www.w3.org/Graphics/SVG/1.1/DTD/svg11.dtd">
<svg width="96pt" height="96pt" viewBox="0 0 96 96" version="1.1" xmlns="http://www.w3.org/2000/svg">
<g id="#000000ff">
<path fill="#000000" opacity="1.00" d=" M 72.32 33.74 C 77.82 23.16 83.26 12.55 88.77 1.98 C 91.19 3.06 93.60 4.15 96.00 5.25 L 96.00 5.34 C 91.76 16.37 87.63 27.44 83.42 38.48 C 85.90 39.86 88.60 41.30 89.95 43.94 C 91.89 47.11 91.70 51.04 90.40 54.41 C 78.79 49.12 67.12 43.97 55.51 38.66 C 58.76 32.75 66.38 30.76 72.32 33.74 Z" />
<path fill="#000000" opacity="1.00" d=" M 0.00 12.86 C 0.89 8.99 5.59 6.63 9.05 8.84 C 13.18 11.02 12.80 17.77 8.44 19.47 C 5.03 21.13 1.14 18.80 0.00 15.42 L 0.00 12.86 Z" />
<path fill="#000000" opacity="1.00" d=" M 22.37 12.37 C 25.19 10.83 28.77 13.92 27.89 16.93 C 27.35 19.56 23.86 20.97 21.73 19.25 C 19.14 17.69 19.62 13.48 22.37 12.37 Z" />
<path fill="#000000" opacity="1.00" d=" M 18.43 28.68 C 25.32 25.66 33.55 32.56 31.80 39.87 C 30.74 47.20 20.75 50.65 15.41 45.48 C 9.78 40.96 11.60 30.97 18.43 28.68 Z" />
<path fill="#000000" opacity="1.00" d=" M 32.01 58.95 C 40.23 56.49 48.19 51.77 52.58 44.16 C 54.90 45.40 57.22 46.64 59.53 47.91 C 52.67 60.45 38.49 66.72 24.92 68.77 C 27.70 71.23 30.61 73.54 33.70 75.59 C 37.42 74.53 40.89 72.81 43.92 70.40 C 42.16 73.14 40.30 75.82 38.22 78.33 C 42.23 79.80 46.35 84.12 50.81 81.79 C 55.79 79.80 59.90 76.25 63.97 72.87 C 61.94 77.42 59.56 81.82 56.57 85.82 C 59.83 86.59 63.13 87.19 66.45 87.69 C 73.07 78.74 77.35 68.34 81.01 57.89 C 83.55 58.75 86.09 59.62 88.62 60.51 C 84.25 73.11 78.61 85.44 70.37 96.00 L 66.96 96.00 C 46.05 93.73 25.20 84.43 11.89 67.75 C 11.38 65.64 11.66 63.44 11.64 61.30 C 18.51 62.15 25.44 60.99 32.01 58.95 Z" />
</g>
</svg>
